<?xml version="1.0" encoding="utf-8"?><svg xmlns="http://www.w3.org/2000/svg" xmlns:xlink="http://www.w3.org/1999/xlink"><symbol viewBox="0 0 24 24" id="fresh" xmlns="http://www.w3.org/2000/svg"><path d="M11.99 2C6.47 2 2 6.48 2 12s4.47 10 9.99 10C17.52 22 22 17.52 22 12S17.52 2 11.99 2zM12 20c-4.42 0-8-3.58-8-8s3.58-8 8-8 8 3.58 8 8-3.58 8-8 8z"/><path d="M0 0h24v24H0z" fill="none"/><path d="M12.5 7H11v6l5.25 3.15.75-1.23-4.5-2.67z"/></symbol><symbol viewBox="0 0 455 455" id="halfmoon" xmlns="http://www.w3.org/2000/svg"><path d="M185.625 0C131.099 0 81.06 19.191 41.875 51.176c51.109 41.718 83.75 105.206 83.75 176.324s-32.641 134.606-83.75 176.324C81.06 435.809 131.099 455 185.625 455c125.645 0 227.5-101.855 227.5-227.5S311.27 0 185.625 0z"/></symbol><symbol viewBox="0 0 512 512" id="hot" xmlns="http://www.w3.org/2000/svg"><path d="M446.906 299.769c-5.865-76.359-41.417-124.21-72.781-166.436C345.083 94.241 320 60.483 320 10.685c0-4-2.24-7.656-5.792-9.489-3.563-1.844-7.844-1.542-11.083.812-47.104 33.706-86.406 90.515-100.135 144.719-9.531 37.737-10.792 80.161-10.969 108.18-43.5-9.291-53.354-74.359-53.458-75.068a10.72 10.72 0 0 0-5.552-7.916c-3.031-1.583-6.594-1.698-9.667-.177-2.281 1.104-55.99 28.394-59.115 137.355-.219 3.625-.229 7.261-.229 10.896 0 105.857 86.135 191.987 192 191.987.146.01.302.031.427 0h.135C362.167 511.681 448 425.667 448 319.997c0-5.323-1.094-20.228-1.094-20.228zM256 490.652c-35.292 0-64-30.581-64-68.172 0-1.281-.01-2.573.083-4.156.427-15.853 3.438-26.675 6.74-33.873 6.188 13.291 17.25 25.509 35.219 25.509a10.66 10.66 0 0 0 10.667-10.666c0-15.186.313-32.706 4.094-48.518 3.365-14.02 11.406-28.936 21.594-40.893 4.531 15.52 13.365 28.081 21.99 40.341 12.344 17.54 25.104 35.675 27.344 66.6.135 1.833.271 3.677.271 5.656-.002 37.59-28.71 68.172-64.002 68.172z"/></symbol><symbol viewBox="0 0 24 24" id="menu" xmlns="http://www.w3.org/2000/svg"><path d="M0 0h24v24H0z" fill="none"/><path d="M3 18h18v-2H3v2zm0-5h18v-2H3v2zm0-7v2h18V6H3z"/></symbol><symbol viewBox="0 0 56.966 56.966" id="search" xmlns="http://www.w3.org/2000/svg"><path d="M55.146 51.887L41.588 37.786A22.926 22.926 0 0 0 46.984 23c0-12.682-10.318-23-23-23s-23 10.318-23 23 10.318 23 23 23c4.761 0 9.298-1.436 13.177-4.162l13.661 14.208c.571.593 1.339.92 2.162.92.779 0 1.518-.297 2.079-.837a3.004 3.004 0 0 0 .083-4.242zM23.984 6c9.374 0 17 7.626 17 17s-7.626 17-17 17-17-7.626-17-17 7.626-17 17-17z"/></symbol><symbol viewBox="0 0 24 24" id="trending" xmlns="http://www.w3.org/2000/svg"><path d="M16 6l2.29 2.29-4.88 4.88-4-4L2 16.59 3.41 18l6-6 4 4 6.3-6.29L22 12V6z"/><path d="M0 0h24v24H0z" fill="none"/></symbol></svg>