<?xml version="1.0" encoding="utf-8"?><!DOCTYPE svg PUBLIC "-//W3C//DTD SVG 1.1//EN" "http://www.w3.org/Graphics/SVG/1.1/DTD/svg11.dtd"><svg xmlns="http://www.w3.org/2000/svg" xmlns:xlink="http://www.w3.org/1999/xlink"><symbol viewBox="0 0 24 24" id="comment" xmlns="http://www.w3.org/2000/svg"><path d="M21.99 4c0-1.1-.89-2-1.99-2H4c-1.1 0-2 .9-2 2v12c0 1.1.9 2 2 2h14l4 4-.01-18z"/><path d="M0 0h24v24H0z" fill="none"/></symbol><symbol viewBox="0 0 512.171 512.171" id="down" xmlns="http://www.w3.org/2000/svg"><path d="M479.046 283.925c-1.664-3.989-5.547-6.592-9.856-6.592H352.305V10.667C352.305 4.779 347.526 0 341.638 0H170.971c-5.888 0-10.667 4.779-10.667 10.667v266.667H42.971a10.702 10.702 0 0 0-9.856 6.571c-1.643 3.989-.747 8.576 2.304 11.627l212.8 213.504c2.005 2.005 4.715 3.136 7.552 3.136s5.547-1.131 7.552-3.115l213.419-213.504a10.645 10.645 0 0 0 2.304-11.628z"/></symbol><symbol viewBox="0 0 96.124 96.123" id="facebook" xmlns="http://www.w3.org/2000/svg"><path d="M72.089.02L59.624 0C45.62 0 36.57 9.285 36.57 23.656v10.907H24.037a1.96 1.96 0 0 0-1.96 1.961v15.803a1.96 1.96 0 0 0 1.96 1.96H36.57v39.876a1.96 1.96 0 0 0 1.96 1.96h16.352a1.96 1.96 0 0 0 1.96-1.96V54.287h14.654a1.96 1.96 0 0 0 1.96-1.96l.006-15.803a1.963 1.963 0 0 0-1.961-1.961H56.842v-9.246c0-4.444 1.059-6.7 6.848-6.7l8.397-.003a1.96 1.96 0 0 0 1.959-1.96V1.98A1.96 1.96 0 0 0 72.089.02z"/></symbol><symbol viewBox="0 0 24 24" id="fresh" xmlns="http://www.w3.org/2000/svg"><path d="M11.99 2C6.47 2 2 6.48 2 12s4.47 10 9.99 10C17.52 22 22 17.52 22 12S17.52 2 11.99 2zM12 20c-4.42 0-8-3.58-8-8s3.58-8 8-8 8 3.58 8 8-3.58 8-8 8z"/><path d="M0 0h24v24H0z" fill="none"/><path d="M12.5 7H11v6l5.25 3.15.75-1.23-4.5-2.67z"/></symbol><symbol viewBox="0 0 455 455" id="halfmoon" xmlns="http://www.w3.org/2000/svg"><path d="M185.625 0C131.099 0 81.06 19.191 41.875 51.176c51.109 41.718 83.75 105.206 83.75 176.324s-32.641 134.606-83.75 176.324C81.06 435.809 131.099 455 185.625 455c125.645 0 227.5-101.855 227.5-227.5S311.27 0 185.625 0z"/></symbol><symbol viewBox="0 0 512 512" id="hot" xmlns="http://www.w3.org/2000/svg"><path d="M446.906 299.769c-5.865-76.359-41.417-124.21-72.781-166.436C345.083 94.241 320 60.483 320 10.685c0-4-2.24-7.656-5.792-9.489-3.563-1.844-7.844-1.542-11.083.812-47.104 33.706-86.406 90.515-100.135 144.719-9.531 37.737-10.792 80.161-10.969 108.18-43.5-9.291-53.354-74.359-53.458-75.068a10.72 10.72 0 0 0-5.552-7.916c-3.031-1.583-6.594-1.698-9.667-.177-2.281 1.104-55.99 28.394-59.115 137.355-.219 3.625-.229 7.261-.229 10.896 0 105.857 86.135 191.987 192 191.987.146.01.302.031.427 0h.135C362.167 511.681 448 425.667 448 319.997c0-5.323-1.094-20.228-1.094-20.228zM256 490.652c-35.292 0-64-30.581-64-68.172 0-1.281-.01-2.573.083-4.156.427-15.853 3.438-26.675 6.74-33.873 6.188 13.291 17.25 25.509 35.219 25.509a10.66 10.66 0 0 0 10.667-10.666c0-15.186.313-32.706 4.094-48.518 3.365-14.02 11.406-28.936 21.594-40.893 4.531 15.52 13.365 28.081 21.99 40.341 12.344 17.54 25.104 35.675 27.344 66.6.135 1.833.271 3.677.271 5.656-.002 37.59-28.71 68.172-64.002 68.172z"/></symbol><symbol viewBox="0 0 24 24" id="menu" xmlns="http://www.w3.org/2000/svg"><path d="M0 0h24v24H0z" fill="none"/><path d="M3 18h18v-2H3v2zm0-5h18v-2H3v2zm0-7v2h18V6H3z"/></symbol><symbol viewBox="0 0 24 24" id="more" xmlns="http://www.w3.org/2000/svg"><path d="M0 0h24v24H0z" fill="none"/><path d="M6 10c-1.1 0-2 .9-2 2s.9 2 2 2 2-.9 2-2-.9-2-2-2zm12 0c-1.1 0-2 .9-2 2s.9 2 2 2 2-.9 2-2-.9-2-2-2zm-6 0c-1.1 0-2 .9-2 2s.9 2 2 2 2-.9 2-2-.9-2-2-2z"/></symbol><symbol viewBox="0 0 438.529 438.529" id="pinterest" xmlns="http://www.w3.org/2000/svg"><path d="M409.141 109.203c-19.608-33.592-46.205-60.189-79.798-79.796C295.751 9.801 259.065 0 219.281 0 179.5 0 142.812 9.801 109.22 29.407c-33.597 19.604-60.194 46.201-79.8 79.796C9.809 142.8.008 179.485.008 219.267c0 44.35 12.085 84.611 36.258 120.767 24.172 36.172 55.863 62.912 95.073 80.232-.762-20.365.476-37.209 3.709-50.532l28.267-119.348c-4.76-9.329-7.139-20.93-7.139-34.831 0-16.175 4.089-29.689 12.275-40.541 8.186-10.85 18.177-16.274 29.979-16.274 9.514 0 16.841 3.14 21.982 9.42 5.142 6.283 7.705 14.181 7.705 23.7 0 5.896-1.099 13.084-3.289 21.554-2.188 8.471-5.041 18.273-8.562 29.409-3.521 11.132-6.045 20.036-7.566 26.692-2.663 11.608-.476 21.553 6.567 29.838 7.042 8.278 16.372 12.423 27.983 12.423 20.365 0 37.065-11.324 50.107-33.972 13.038-22.655 19.554-50.159 19.554-82.514 0-24.938-8.042-45.21-24.129-60.813-16.085-15.609-38.496-23.417-67.239-23.417-32.161 0-58.192 10.327-78.082 30.978-19.891 20.654-29.836 45.352-29.836 74.091 0 17.132 4.854 31.505 14.56 43.112 3.235 3.806 4.283 7.898 3.14 12.279-.381 1.143-1.141 3.997-2.284 8.562-1.138 4.565-1.903 7.522-2.281 8.851-1.521 6.091-5.14 7.994-10.85 5.708-14.654-6.085-25.791-16.652-33.402-31.689-7.614-15.037-11.422-32.456-11.422-52.246 0-12.753 2.047-25.505 6.14-38.256 4.089-12.756 10.468-25.078 19.126-36.975 8.663-11.9 19.036-22.417 31.123-31.549 12.082-9.135 26.787-16.462 44.108-21.982s35.972-8.28 55.959-8.28c27.032 0 51.295 5.995 72.8 17.986 21.512 11.992 37.925 27.502 49.252 46.537 11.327 19.036 16.987 39.403 16.987 61.101 0 28.549-4.948 54.243-14.842 77.086-9.896 22.839-23.887 40.778-41.973 53.813-18.083 13.042-38.637 19.561-61.675 19.561-11.607 0-22.456-2.714-32.548-8.135-10.085-5.427-17.034-11.847-20.839-19.273-8.566 33.685-13.706 53.77-15.42 60.24-3.616 13.508-11.038 29.119-22.27 46.819 20.367 6.091 41.112 9.13 62.24 9.13 39.781 0 76.47-9.801 110.062-29.41 33.595-19.602 60.192-46.199 79.794-79.791 19.606-33.599 29.407-70.287 29.407-110.065.01-39.778-9.777-76.468-29.376-110.06z"/></symbol><symbol viewBox="0 0 56.966 56.966" id="search" xmlns="http://www.w3.org/2000/svg"><path d="M55.146 51.887L41.588 37.786A22.926 22.926 0 0 0 46.984 23c0-12.682-10.318-23-23-23s-23 10.318-23 23 10.318 23 23 23c4.761 0 9.298-1.436 13.177-4.162l13.661 14.208c.571.593 1.339.92 2.162.92.779 0 1.518-.297 2.079-.837a3.004 3.004 0 0 0 .083-4.242zM23.984 6c9.374 0 17 7.626 17 17s-7.626 17-17 17-17-7.626-17-17 7.626-17 17-17z"/></symbol><symbol viewBox="0 0 24 24" id="star" xmlns="http://www.w3.org/2000/svg"><path d="M0 0h24v24H0z" fill="none"/><path d="M12 17.27L18.18 21l-1.64-7.03L22 9.24l-7.19-.61L12 2 9.19 8.63 2 9.24l5.46 4.73L5.82 21z"/><path d="M0 0h24v24H0z" fill="none"/></symbol><symbol viewBox="0 0 24 24" id="trending" xmlns="http://www.w3.org/2000/svg"><path d="M16 6l2.29 2.29-4.88 4.88-4-4L2 16.59 3.41 18l6-6 4 4 6.3-6.29L22 12V6z"/><path d="M0 0h24v24H0z" fill="none"/></symbol><symbol viewBox="0 0 512.171 512.171" id="up" xmlns="http://www.w3.org/2000/svg"><path d="M476.723 216.64L263.305 3.115A10.652 10.652 0 0 0 255.753 0a10.675 10.675 0 0 0-7.552 3.136L35.422 216.64c-3.051 3.051-3.947 7.637-2.304 11.627a10.67 10.67 0 0 0 9.856 6.571h117.333v266.667c0 5.888 4.779 10.667 10.667 10.667h170.667c5.888 0 10.667-4.779 10.667-10.667V234.837h116.885c4.309 0 8.192-2.603 9.856-6.592 1.664-3.989.725-8.554-2.326-11.605z"/></symbol></svg>